<?xml version="1.0" encoding="UTF-8"?>
<svg version="1.1" xmlns="http://www.w3.org/2000/svg" width="1080" height="171">
<path d="M0 0 C13.56410233 2.45997333 26.98337202 0.97834944 40.5324707 -0.92089844 C40.8624707 -0.26089844 41.1924707 0.39910156 41.5324707 1.07910156 C41.2024707 1.73910156 40.8724707 2.39910156 40.5324707 3.07910156 C41.32008789 2.71816406 42.10770508 2.35722656 42.91918945 1.98535156 C53.36164458 -2.46350506 62.14626137 -3.88054227 72.9699707 0.14160156 C79.30198499 3.10267562 82.95541828 6.62460578 85.8449707 12.95410156 C86.72948624 16.97462672 87.18635737 20.98039102 87.5324707 25.07910156 C88.31557617 24.11810547 88.31557617 24.11810547 89.11450195 23.13769531 C94.61526032 16.67358172 100.13303169 12.19695818 107.5324707 8.07910156 C108.29946289 7.62921875 109.06645508 7.17933594 109.85668945 6.71582031 C123.13185577 -0.5641096 136.58713136 -2.76262594 151.5324707 -1.92089844 C152.53320104 2.25466076 152.68105061 6.20177322 152.72192383 10.48950195 C152.73436378 11.58357613 152.73436378 11.58357613 152.74705505 12.69975281 C152.76440885 14.28038979 152.77958827 15.86105182 152.79283142 17.44172859 C152.81403255 19.96385594 152.84105342 22.48586399 152.86950684 25.00791931 C152.92908216 30.38576546 152.98107579 35.76367199 153.0324707 41.14160156 C153.10040863 48.17421112 153.17193766 55.20676633 153.2512207 62.23925781 C153.26060669 63.08197865 153.26999268 63.92469948 153.27966309 64.79295731 C153.41990225 76.90595032 153.71386898 88.98982439 154.5324707 101.07910156 C156.66070907 95.47583969 158.67490174 89.84654546 160.60668945 84.17285156 C160.89149673 83.33921082 161.17630402 82.50557007 161.46974182 81.64666748 C162.38779976 78.95792545 163.30397045 76.26854523 164.2199707 73.57910156 C164.85700437 71.71158492 165.4940487 69.84407193 166.13110352 67.9765625 C169.38218152 58.43852618 172.61333945 48.89471417 175.7824707 39.32910156 C178.57117091 30.91672492 181.40838324 22.52146729 184.28503418 14.13879395 C184.73858339 12.81629909 185.19115256 11.49346769 185.6427002 10.17028809 C186.26836807 8.33810007 186.89836275 6.50739131 187.52856445 4.67675781 C187.89135498 3.61980713 188.25414551 2.56285645 188.62792969 1.47387695 C189.5324707 -0.92089844 189.5324707 -0.92089844 190.5324707 -1.92089844 C192.71886523 -1.9934879 194.90747459 -2.00463626 197.0949707 -1.98339844 C198.8912793 -1.96986328 198.8912793 -1.96986328 200.72387695 -1.95605469 C201.65071289 -1.94445313 202.57754883 -1.93285156 203.5324707 -1.92089844 C202.96588815 2.9791067 201.92686062 7.26767378 200.2199707 11.89160156 C199.5412793 13.73625 199.5412793 13.73625 198.84887695 15.61816406 C197.49979843 19.16499959 196.09689012 22.68455295 194.66918945 26.20019531 C192.20166002 32.44957399 189.93613008 38.77697492 187.62768555 45.08642578 C186.42705359 48.36715395 185.22406607 51.64701248 184.02075195 54.92675781 C180.48665534 64.56037225 176.95460077 74.19473454 173.42634583 83.83049011 C167.16582727 100.92744717 160.86504055 118.00869589 154.5324707 135.07910156 C145.2924707 135.07910156 136.0524707 135.07910156 126.5324707 135.07910156 C125.84422887 128.88492508 125.35394507 122.92875427 125.2512207 116.72998047 C125.23317383 115.84235016 125.21512695 114.95471985 125.1965332 114.04019165 C125.15817241 112.1267815 125.12168879 110.21333296 125.08691406 108.29985428 C125.03150553 105.25258293 124.9710658 102.20544593 124.90942383 99.15829468 C124.77920944 92.67364882 124.65567411 86.18888377 124.5324707 79.70410156 C124.3893329 72.21480736 124.2433538 64.72557951 124.09277344 57.23643112 C124.03420515 54.2685552 123.97948218 51.30062631 123.92504883 48.33267212 C123.69759856 36.56417079 123.23196432 24.82904516 122.5324707 13.07910156 C121.54017456 13.6399646 121.54017456 13.6399646 120.52783203 14.2121582 C113.9074707 17.95410156 113.9074707 17.95410156 110.5324707 19.07910156 C109.82852458 20.39313432 109.16901412 21.73112727 108.5324707 23.07910156 C107.6043457 24.13097656 107.6043457 24.13097656 106.6574707 25.20410156 C99.0324634 35.52028792 98.50236127 48.43829127 100.0324707 60.76660156 C100.1974707 61.85972656 100.3624707 62.95285156 100.5324707 64.07910156 C93.59797538 64.5036625 88.93695703 63.16995924 83.6574707 58.57910156 C80.15233096 54.45540774 80.42186048 51.13561623 80.4699707 45.89160156 C80.47899414 44.61929688 80.48801758 43.34699219 80.49731445 42.03613281 C80.5147168 40.57240234 80.5147168 40.57240234 80.5324707 39.07910156 C79.60563477 39.57539062 78.67879883 40.07167969 77.72387695 40.58300781 C73.94587424 42.35409109 72.4674396 42.3349427 68.5324707 41.07910156 C65.6574707 39.14160156 65.6574707 39.14160156 63.5324707 37.07910156 C63.5324707 35.07910156 63.5324707 35.07910156 65.4074707 33.20410156 C66.1087207 32.50285156 66.8099707 31.80160156 67.5324707 31.07910156 C69.65703184 27.73198595 69.83037596 24.94258642 69.8449707 21.01660156 C69.87010742 19.45232422 69.87010742 19.45232422 69.89575195 17.85644531 C69.75083805 15.09066794 69.75083805 15.09066794 68.24731445 13.23535156 C65.22198501 11.1954939 61.9831365 11.53894209 58.5324707 12.07910156 C52.24860317 14.42223861 50.27218335 17.55726686 47.4777832 23.54394531 C44.58121599 31.31201192 44.34587714 39.70873128 47.70043945 47.33691406 C47.97500977 47.91183594 48.24958008 48.48675781 48.5324707 49.07910156 C49.0893457 50.40941406 49.0893457 50.40941406 49.6574707 51.76660156 C52.13526281 54.82254516 54.99153546 56.21035424 58.47387695 57.96582031 C60.5324707 59.07910156 60.5324707 59.07910156 62.5324707 61.07910156 C61.13834961 61.71525391 61.13834961 61.71525391 59.71606445 62.36425781 C45.97607957 68.80249644 38.33102057 77.01972256 32.5949707 91.45410156 C30.73149728 97.82485132 30.03000366 105.88760376 32.29418945 112.20410156 C34.49251631 115.67971715 37.50811089 118.31124095 41.3449707 119.76660156 C53.18509974 121.45804857 64.08862918 117.0519229 73.5324707 110.07910156 C75.23192974 108.14254079 75.23192974 108.14254079 76.4699707 106.14160156 C77.1505957 105.13097656 77.8312207 104.12035156 78.5324707 103.07910156 C81.3449707 102.64160156 81.3449707 102.64160156 83.5324707 103.07910156 C84.55926254 105.72202729 84.66941014 106.7609971 83.52856445 109.41113281 C73.76043855 124.95689709 60.71315836 135.09888193 42.60668945 139.56738281 C31.26871071 141.45464484 20.7203188 140.85081797 10.5324707 135.07910156 C3.42742591 129.74747595 -1.11065146 122.87978587 -2.4675293 114.07910156 C-3.39276326 98.51026082 -0.18381678 85.63573018 9.82543945 73.23925781 C15.35543207 67.39276324 21.26267609 63.47904353 28.5324707 60.07910156 C28.13415039 59.59441406 27.73583008 59.10972656 27.32543945 58.61035156 C21.51358979 51.25715978 19.22015694 45.48484949 19.1340332 36.08300781 C19.69149231 31.88020334 21.09123539 28.05316841 22.5324707 24.07910156 C21.92363037 24.03422607 21.31479004 23.98935059 20.6875 23.94311523 C-0.96568903 22.29828402 -0.96568903 22.29828402 -10.4675293 19.07910156 C-10.57709961 20.28953125 -10.68666992 21.49996094 -10.79956055 22.74707031 C-11.50298336 29.04595769 -12.84004918 35.19668574 -14.1550293 41.39160156 C-14.423396 42.67139893 -14.6917627 43.95119629 -14.96826172 45.26977539 C-15.79484067 49.2076132 -16.6303998 53.14349277 -17.4675293 57.07910156 C-17.70632813 58.2028418 -17.94512695 59.32658203 -18.19116211 60.484375 C-19.37104306 66.02664464 -20.55926464 71.56707642 -21.75268555 77.10644531 C-23.10148324 83.36784394 -24.44000118 89.63139307 -25.77612305 95.89550781 C-26.38736189 98.75829586 -26.99874907 101.62105219 -27.61019897 104.48379517 C-28.01171276 106.36486334 -28.41278245 108.24602637 -28.81338501 110.12728882 C-29.379102 112.7833785 -29.94657876 115.43908696 -30.5144043 118.09472656 C-30.68189682 118.88323502 -30.84938934 119.67174347 -31.0219574 120.48414612 C-31.18285355 121.23510056 -31.34374969 121.98605499 -31.50952148 122.75976562 C-31.71553986 123.72562592 -31.71553986 123.72562592 -31.92572021 124.71099854 C-32.71935015 128.17974338 -33.60449636 131.62696983 -34.4675293 135.07910156 C-43.3775293 135.07910156 -52.2875293 135.07910156 -61.4675293 135.07910156 C-61.4675293 129.63403336 -61.04719988 125.20469319 -59.8581543 120.00488281 C-59.69129623 119.24708527 -59.52443817 118.48928772 -59.3525238 117.70852661 C-58.81399305 115.26806688 -58.26574662 112.82990157 -57.7175293 110.39160156 C-56.97625525 107.04590597 -56.23970667 103.69917369 -55.50268555 100.35253906 C-55.32264481 99.5385112 -55.14260406 98.72448334 -54.95710754 97.88578796 C-53.4522752 91.06584933 -52.04802681 84.22946554 -50.74780273 77.36743164 C-49.98575516 73.41300981 -49.08417497 69.52279042 -48.08081055 65.62207031 C-46.83440435 60.71117568 -45.75260367 55.7859097 -44.7487793 50.82128906 C-44.60297928 50.10028519 -44.45717926 49.37928131 -44.30696106 48.63642883 C-43.70739893 45.65860564 -43.11176932 42.68002054 -42.51977539 39.70068359 C-40.86163807 31.37737791 -39.16467257 23.14336236 -36.4675293 15.07910156 C-47.55929502 16.62942791 -55.95968377 17.81604917 -64.2800293 25.76660156 C-71.88158637 37.27753084 -71.16187881 51.94789282 -69.4675293 65.07910156 C-76.23670694 65.42923144 -80.34031336 64.68511485 -85.7175293 60.20410156 C-90.51459708 54.37909068 -90.19388054 47.23439644 -89.71020508 40.046875 C-88.25889266 28.27868776 -80.97648275 17.40067004 -72.0612793 9.92675781 C-51.41853216 -4.77809067 -23.90582564 -4.41306815 0 0 Z " fill="#000000" transform="translate(699.467529296875,16.9208984375)"/>
<path d="M0 0 C5.08529714 4.13919534 7.88690742 9.28969139 9.75 15.5 C10.10160539 19.01605386 10.05988739 22.46664372 10 26 C20.80107648 24.22448058 29.45348049 20.15928718 39 15 C41 18 41 18 41.125 20.3125 C37.95545989 27.88417916 28.49122415 30.84012634 21.43359375 33.7421875 C17.29677222 35.25761018 13.33639388 36.25234588 9 37 C9.05414063 37.95261719 9.10828125 38.90523437 9.1640625 39.88671875 C9.15669538 44.77234908 7.80152827 49.17344404 6.375 53.8125 C6.10284668 54.70106689 5.83069336 55.58963379 5.55029297 56.50512695 C1.35968098 69.6578518 -6.04025178 80.1193353 -17.62890625 87.80859375 C-26.50097262 92.26655132 -37.42929385 92.25517335 -47.046875 90.41796875 C-53.78654518 88.12606228 -57.75358605 83.55117801 -62 78 C-62.3403125 78.44730469 -62.680625 78.89460938 -63.03125 79.35546875 C-67.48755346 84.9139962 -72.76536821 89.73167457 -80 91 C-94.8941568 91.94335707 -94.8941568 91.94335707 -101 88 C-105.64844816 83.70912477 -108.74520377 79.35846156 -109.12475586 72.8659668 C-109.19648632 66.58225165 -108.44974806 60.77078346 -107.1875 54.625 C-106.91728027 53.24429321 -106.91728027 53.24429321 -106.64160156 51.83569336 C-105.68198996 47.01937724 -104.58036649 42.29198472 -103.25 37.5625 C-101.58028792 31.20475016 -101.08364309 24.52230508 -102 18 C-104.79776555 15.73420616 -104.79776555 15.73420616 -107.875 16 C-111.89515082 17.28644826 -113.88827859 19.47812576 -116 23 C-118.79234085 28.7803417 -120.128176 34.48287036 -121.375 40.76171875 C-121.58560059 41.78876419 -121.79620117 42.81580963 -122.01318359 43.87397766 C-122.68251203 47.14376059 -123.34178061 50.41546439 -124 53.6875 C-124.65990592 56.9413103 -125.32200246 60.19465292 -125.98681641 63.44746399 C-126.39857599 65.46486347 -126.80732812 67.48288023 -127.21240234 69.50163269 C-128.61399721 76.40654203 -130.28665771 83.14663084 -132 90 C-140.91 90 -149.82 90 -159 90 C-159 88.02 -159 86.04 -159 84 C-159.67546875 84.42152344 -160.3509375 84.84304687 -161.046875 85.27734375 C-162.38492188 86.09912109 -162.38492188 86.09912109 -163.75 86.9375 C-164.63171875 87.48277344 -165.5134375 88.02804688 -166.421875 88.58984375 C-172.76432288 92.05897055 -179.94307492 91.5713132 -187 91 C-192.45580422 89.40072741 -195.22646146 85.82801154 -198 81 C-198.66 80.01 -199.32 79.02 -200 78 C-200.639375 78.86625 -201.27875 79.7325 -201.9375 80.625 C-205.86212048 85.3592843 -211.17037834 89.05679278 -217 91 C-219.43448818 91.14703064 -221.8737477 91.22105339 -224.3125 91.25 C-225.60800781 91.27578125 -226.90351563 91.3015625 -228.23828125 91.328125 C-233.3376165 90.88332317 -236.62458992 89.41470751 -240.1875 85.75 C-244.15300599 79.73337023 -245.49278099 74.89898974 -245.375 67.8125 C-245.38660156 67.13380859 -245.39820313 66.45511719 -245.41015625 65.75585938 C-245.38043266 60.40065897 -244.2463578 55.60949325 -242.87353516 50.45141602 C-241.88126076 46.53085056 -241.06428151 42.59557833 -240.28125 38.62890625 C-240.13555573 37.89281631 -239.98986145 37.15672638 -239.8397522 36.39833069 C-239.39088421 34.12016184 -238.94505721 31.84141615 -238.5 29.5625 C-232.64324818 -0.35675182 -232.64324818 -0.35675182 -231 -2 C-229.00035018 -2.08758003 -226.9976389 -2.10696576 -224.99609375 -2.09765625 C-223.78115234 -2.09443359 -222.56621094 -2.09121094 -221.31445312 -2.08789062 C-220.03505859 -2.07951172 -218.75566406 -2.07113281 -217.4375 -2.0625 C-216.15423828 -2.05798828 -214.87097656 -2.05347656 -213.54882812 -2.04882812 C-210.36583978 -2.03699545 -207.18294238 -2.02051068 -204 -2 C-208.72264242 23.80545107 -208.72264242 23.80545107 -211.0625 35.5 C-211.21968506 36.28947021 -211.37687012 37.07894043 -211.53881836 37.89233398 C-212.36730915 42.00933507 -213.24296899 46.11146942 -214.171875 50.20703125 C-214.36257568 51.06296875 -214.55327637 51.91890625 -214.74975586 52.80078125 C-215.1123328 54.41908563 -215.48479619 56.03522247 -215.86938477 57.6484375 C-216.94505959 62.47222493 -216.99335936 66.14856105 -216 71 C-212.20191623 71.29788892 -209.71132693 71.3804772 -206.3125 69.5625 C-200.62556286 63.26075884 -199.10020426 54.99570837 -197.5625 46.875 C-197.14032804 44.75110205 -196.71712348 42.62740912 -196.29296875 40.50390625 C-196.08075684 39.4277002 -195.86854492 38.35149414 -195.64990234 37.24267578 C-194.61650475 32.08655751 -193.4984512 26.94962301 -192.375 21.8125 C-192.18107666 20.91837402 -191.98715332 20.02424805 -191.78735352 19.10302734 C-190.25160546 12.05328679 -188.62272259 5.03179788 -187 -2 C-178.09 -2 -169.18 -2 -160 -2 C-161.12468814 10.3715695 -161.12468814 10.3715695 -162.12329102 15.00292969 C-162.34344376 16.04060486 -162.5635965 17.07828003 -162.79042053 18.1473999 C-163.02587082 19.22797668 -163.26132111 20.30855347 -163.50390625 21.421875 C-163.7466478 22.56609924 -163.98938934 23.71032349 -164.23948669 24.88922119 C-165.26834669 29.73895508 -166.31179754 34.5855114 -167.35522461 39.43212891 C-168.11891782 42.99000159 -168.87416836 46.5495937 -169.62890625 50.109375 C-169.98511803 51.74238556 -169.98511803 51.74238556 -170.348526 53.40838623 C-172.59439823 62.29978943 -172.59439823 62.29978943 -171 71 C-164.61482671 71.47471565 -164.61482671 71.47471565 -159 69 C-155.75473565 64.69256195 -154.19291542 60.96586088 -152.97265625 55.73046875 C-152.80951431 55.03906296 -152.64637238 54.34765717 -152.47828674 53.63529968 C-150.60627941 45.56827978 -149.01471495 37.44122321 -147.4375 29.3125 C-141.65321822 -0.34678178 -141.65321822 -0.34678178 -140 -2 C-138.00035018 -2.08758003 -135.9976389 -2.10696576 -133.99609375 -2.09765625 C-132.78115234 -2.09443359 -131.56621094 -2.09121094 -130.31445312 -2.08789062 C-129.03505859 -2.07951172 -127.75566406 -2.07113281 -126.4375 -2.0625 C-125.15423828 -2.05798828 -123.87097656 -2.05347656 -122.54882812 -2.04882812 C-119.36583978 -2.03699545 -116.18294238 -2.02051068 -113 -2 C-113 -0.02 -113 1.96 -113 4 C-112.29875 3.38125 -111.5975 2.7625 -110.875 2.125 C-103.96386497 -2.98323024 -96.25911781 -2.60643872 -88 -2 C-83.29203311 -1.04394529 -79.9671732 1.3221684 -77.0703125 5.20703125 C-71.23935814 14.97494384 -73.68909728 24.12678002 -75.875 34.6875 C-76.13845215 35.99352173 -76.13845215 35.99352173 -76.40722656 37.32592773 C-77.20114584 41.23680868 -78.01818189 45.13816954 -78.9296875 49.0234375 C-80.58315817 56.15698241 -81.40368478 62.6738688 -81 70 C-77.442257 71.7788715 -73.74891266 70.99712012 -70 70 C-67.07488772 67.86710563 -66.25524553 67.21693157 -65 64 C-64.64049758 60.72807293 -64.54730834 57.47664086 -64.421875 54.1875 C-62.98156142 34.36878519 -53.11136014 17.22570309 -38.86328125 4.01953125 C-28.37164075 -4.59936206 -12.00996673 -6.09350892 0 0 Z M-18.125 10.4375 C-29.10778755 20.2265063 -34.01707146 37.8362247 -36 52 C-36.11392013 54.33138862 -36.17470321 56.66586484 -36.1875 59 C-36.20167969 60.175625 -36.21585938 61.35125 -36.23046875 62.5625 C-35.99544833 66.06788926 -35.36922821 68.77150401 -34 72 C-30.81929763 73.59035119 -27.41669549 73.78937448 -24 73 C-18.82773981 69.49121412 -16.37849928 65.77568947 -13.75 60.1875 C-13.41226563 59.51396484 -13.07453125 58.84042969 -12.7265625 58.14648438 C-9.86596599 52.26198959 -7.63767106 46.14521043 -7.875 39.5 C-7.91625 38.345 -7.9575 37.19 -8 36 C-8.66 35.67 -9.32 35.34 -10 35 C-12.43215212 28.16681072 -12.43215212 28.16681072 -10.75 23.625 C-9 21 -9 21 -7 19 C-6.97691403 16.77871445 -6.97691403 16.77871445 -7.375 14.375 C-7.48585938 13.55773437 -7.59671875 12.74046875 -7.7109375 11.8984375 C-7.80632812 11.27195312 -7.90171875 10.64546875 -8 10 C-12.06213595 9.02508737 -14.27526401 8.66662144 -18.125 10.4375 Z " fill="#000000" transform="translate(367,62)"/>
<path d="M0 0 C5.40307104 2.98455353 9.71091151 6.93690463 11.64453125 12.9921875 C12.98424839 20.05146627 12.92053101 27.89215972 9.05078125 34.1328125 C6.09859504 37.54720968 3.22998124 39.69963699 -1.01171875 41.2578125 C-5.03497947 41.08660992 -6.95886291 39.7671736 -9.94921875 37.1328125 C-9.94921875 33.1328125 -9.94921875 33.1328125 -8.57421875 31.6953125 C-8.03796875 31.1796875 -7.50171875 30.6640625 -6.94921875 30.1328125 C-4.29055561 25.51513441 -4.25946424 20.31033687 -4.94921875 15.1328125 C-6.30684029 12.35716405 -6.30684029 12.35716405 -8.94921875 11.1328125 C-13.62594886 10.42689097 -17.25584941 11.05099933 -21.30859375 13.59765625 C-26.51565859 18.46998121 -28.55081666 25.82223255 -29.1875 32.7109375 C-29.41331227 40.84017927 -27.83438296 46.623829 -22.63671875 52.9453125 C-19.54472966 55.46204781 -16.46989665 57.2689242 -12.94921875 59.1328125 C-15.25998279 61.74270457 -17.45810053 62.93808762 -20.63671875 64.3203125 C-31.09001182 69.43284012 -37.53186075 78.69922202 -41.82421875 89.3203125 C-43.69581896 95.59633714 -43.85038343 102.68274406 -42.94921875 109.1328125 C-40.42378616 113.57176589 -38.00991158 116.97186005 -33.13671875 118.8203125 C-22.63680829 120.32029971 -12.44983782 116.89383971 -3.8671875 110.796875 C-1.88516233 109.07723605 -0.40766598 107.28163929 1.17578125 105.1953125 C2.56640625 103.4140625 2.56640625 103.4140625 4.05078125 102.1328125 C7.92578125 102.1953125 7.92578125 102.1953125 11.05078125 103.1328125 C11.09203125 101.8334375 11.13328125 100.5340625 11.17578125 99.1953125 C11.93651649 92.56753698 15.18619526 87.79807342 20.015625 83.3046875 C25.55560559 78.92374315 30.73913437 76.60877092 37.96484375 76.81640625 C43.06601424 77.5901793 46.9327058 79.98606845 50.48828125 83.6328125 C51.90054681 85.89243739 52.66346261 87.51841165 53.05078125 90.1328125 C52.04015625 90.4009375 51.02953125 90.6690625 49.98828125 90.9453125 C42.87857343 93.02795419 38.3100976 94.994386 34.05078125 101.1328125 C31.87749415 106.14809043 32.66548753 111.89581687 34.23828125 116.9453125 C36.52775849 120.97163453 38.63625896 122.21695922 42.86328125 123.8203125 C49.41553382 124.75634858 55.25685888 124.52058116 61.05078125 121.1328125 C66.83472454 116.18063097 68.6744321 110.89630398 69.42578125 103.3828125 C68.9641461 88.46622678 57.17705645 76.3880368 48.1171875 65.65625 C39.30801339 55.10017891 30.5464829 43.72784165 30.84375 29.296875 C31.62375383 21.14362747 35.61705988 14.13275346 41.05078125 8.1328125 C52.22473915 -1.08790237 64.87055765 -4.13128146 79.04248047 -3.09033203 C87.86788592 -2.10973143 95.31351765 1.28957037 101.05078125 8.1328125 C105.22242028 14.63959641 107.25880011 21.40303497 105.625 29.15234375 C103.90779506 34.66214855 100.95450879 38.10465596 96.05078125 41.1328125 C91.4412285 42.63797258 88.45783734 42.04892385 84.05078125 40.1328125 C81.67578125 38.5078125 81.67578125 38.5078125 80.05078125 37.1328125 C80.66728317 33.12555004 82.83654496 30.45416694 85.05078125 27.1328125 C87.24264627 21.47049454 86.19691046 15.6322686 84.05078125 10.1328125 C76.56093195 8.0574213 76.56093195 8.0574213 69.11328125 9.2578125 C64.41894346 12.13189686 61.46537747 14.71019364 60.05078125 20.1328125 C58.68081425 31.96434571 63.77558875 39.18664636 70.734375 48.3359375 C73.52026741 51.69967943 76.50328296 54.74503307 79.75390625 57.66015625 C85.81800827 63.18828966 89.96263953 70.10021061 94.05078125 77.1328125 C94.53289062 77.94492188 95.015 78.75703125 95.51171875 79.59375 C99.81032153 88.28241519 99.35383919 99.9490701 97.390625 109.265625 C93.55019904 119.87251575 85.59662075 127.48218805 76.05078125 133.1328125 C72.45015439 134.74424842 68.82249956 135.99055298 65.05078125 137.1328125 C63.67986328 137.66261719 63.67986328 137.66261719 62.28125 138.203125 C49.42609852 141.90267283 35.66919188 139.25405513 24.05078125 133.1328125 C15.83173988 127.22496699 12.44500101 120.79057732 10.05078125 111.1328125 C9.86 110.37355469 9.66921875 109.61429687 9.47265625 108.83203125 C9.26382813 107.99091797 9.26382813 107.99091797 9.05078125 107.1328125 C8.73367188 107.73867187 8.4165625 108.34453125 8.08984375 108.96875 C0.05668232 123.39293488 -12.24740698 132.53856088 -27.76171875 137.6328125 C-40.22486808 140.75209679 -52.64594451 140.84065721 -63.94921875 134.1328125 C-66.82421875 131.8203125 -66.82421875 131.8203125 -68.94921875 129.1328125 C-69.46097656 128.52308594 -69.97273438 127.91335937 -70.5 127.28515625 C-77.49297194 118.62321726 -77.98684755 108.91377571 -76.94921875 98.1328125 C-74.23202617 83.99106019 -66.86816644 73.27357355 -55.94921875 64.1328125 C-52.71898325 62.145637 -49.47748946 60.51809883 -45.94921875 59.1328125 C-46.34753906 58.648125 -46.74585938 58.1634375 -47.15625 57.6640625 C-53.63468832 49.4674982 -55.9956233 42.65581038 -54.94921875 32.1328125 C-52.89933182 20.12897012 -45.6664202 10.21966804 -35.94921875 3.1328125 C-24.88762645 -3.62929228 -12.01205124 -5.62266228 0 0 Z " fill="#000000" transform="translate(501.94921875,17.8671875)"/>
<path d="M0 0 C5.74712242 3.36069825 9.95570423 8.9139877 12.05078125 15.19921875 C12.99671565 23.32074122 11.64214295 29.41308525 7.05078125 36.19921875 C4.47980737 38.90203745 2.69577816 39.95555325 -0.76171875 41.26171875 C-5.40805432 41.17061413 -8.28153563 38.88947363 -11.94921875 36.19921875 C-11.52769531 35.57273438 -11.10617187 34.94625 -10.671875 34.30078125 C-10.12402344 33.48351563 -9.57617188 32.66625 -9.01171875 31.82421875 C-8.19380859 30.60605469 -8.19380859 30.60605469 -7.359375 29.36328125 C-4.35635972 24.7547758 -4.3469463 20.61094218 -4.94921875 15.19921875 C-6.24363013 12.40417794 -6.24363013 12.40417794 -8.94921875 11.19921875 C-13.48382533 10.61410822 -15.87949377 10.74993426 -20.07421875 12.51171875 C-26.7377553 18.74067683 -29.79277954 26.28775198 -30.12109375 35.33984375 C-29.71217425 42.14277721 -27.25144853 47.91362216 -22.94921875 53.19921875 C-19.77475052 55.58006992 -16.55025435 57.53720232 -12.94921875 59.19921875 C-15.46533348 62.13755821 -18.1929828 63.33382999 -21.69921875 64.88671875 C-32.5196135 70.23832193 -37.61688238 79.2752093 -41.94921875 90.19921875 C-43.99075694 97.64581296 -44.89184552 104.89601551 -41.94921875 112.19921875 C-39.94443238 115.68903205 -38.60258006 116.89976148 -34.94921875 118.57421875 C-25.25554069 120.70310753 -15.41111878 117.95976499 -6.94921875 113.19921875 C-2.63065235 109.97443772 1.05514275 106.6926765 4.05078125 102.19921875 C5.70078125 102.52921875 7.35078125 102.85921875 9.05078125 103.19921875 C9.19773437 102.65394531 9.3446875 102.10867187 9.49609375 101.546875 C12.09767534 92.80017828 16.42201494 85.38677984 24.05078125 80.19921875 C29.17113642 77.56436932 34.30960856 76.19785142 40.05078125 77.19921875 C45.24391978 78.96185336 49.22125688 81.36544796 52.05078125 86.19921875 C52.14453125 88.859375 52.14453125 88.859375 52.05078125 91.19921875 C51.24253906 91.35777344 50.43429687 91.51632813 49.6015625 91.6796875 C41.17196474 93.42855389 41.17196474 93.42855389 35.05078125 99.19921875 C31.80897574 104.75659962 32.47679662 111.01090235 34.05078125 117.01171875 C36.70464765 121.24131833 39.3088234 122.80063083 44.05078125 124.19921875 C50.69293528 125.33955316 56.38565383 123.75229867 62.05078125 120.19921875 C67.3810682 115.69895216 68.75297368 110.17729445 69.42578125 103.44921875 C69.01354807 90.12893402 59.85189108 79.993834 51.58935547 70.50170898 C41.3816372 58.73028892 30.19417034 45.72361398 30.8125 29.2890625 C31.84861283 20.20184338 35.54708257 13.60320144 42.05078125 7.19921875 C52.82995687 -1.24295913 65.54720393 -4.1723905 78.98632812 -3.08007812 C86.88915443 -2.01091619 94.60951372 1.33939217 100.05078125 7.19921875 C104.3718693 13.34123353 106.8174526 19.66028383 106.05078125 27.19921875 C104.14544987 33.48897746 101.60447782 37.64485294 96.05078125 41.19921875 C91.43138514 42.64278003 88.45428979 42.11378768 84.05078125 40.19921875 C81.67578125 38.57421875 81.67578125 38.57421875 80.05078125 37.19921875 C80.42047605 33.96438925 80.81787918 32.45395539 83.05078125 30.01171875 C85.94333281 25.94406811 86.23229158 22.12367294 86.05078125 17.19921875 C84.80376365 12.91259575 83.72195585 11.63753686 79.98828125 9.19921875 C75.24018174 7.50202573 70.66152757 8.42090298 66.05078125 10.19921875 C63.45084022 12.36442375 63.45084022 12.36442375 62.05078125 15.19921875 C61.63828125 15.92109375 61.22578125 16.64296875 60.80078125 17.38671875 C58.90595828 24.49230488 59.407921 31.76920368 63.05078125 38.19921875 C67.43534065 44.43640889 72.6384019 49.99693788 77.75390625 55.6328125 C88.26940155 67.38226899 98.71532066 79.53717121 98.48828125 96.01171875 C98.47925781 96.79998047 98.47023438 97.58824219 98.4609375 98.40039062 C98.12345886 109.82779241 94.04405338 118.0382556 86.05078125 126.19921875 C75.56470937 135.98621917 60.48841355 140.08660902 46.40063477 139.77368164 C35.26862125 139.16335503 24.69147858 135.35670511 17.046875 127.01171875 C12.3397744 120.87971296 10.41270187 114.7481502 9.05078125 107.19921875 C8.64085937 107.92109375 8.2309375 108.64296875 7.80859375 109.38671875 C7.26976562 110.31484375 6.7309375 111.24296875 6.17578125 112.19921875 C5.64210938 113.12734375 5.1084375 114.05546875 4.55859375 115.01171875 C4.06101562 115.73359375 3.5634375 116.45546875 3.05078125 117.19921875 C2.39078125 117.19921875 1.73078125 117.19921875 1.05078125 117.19921875 C0.6640625 118.08480469 0.6640625 118.08480469 0.26953125 118.98828125 C-5.17450485 128.8643211 -18.32079358 134.55573343 -28.56347656 137.70507812 C-39.84754855 140.79068997 -50.72994929 140.63785204 -61.43359375 135.68359375 C-65.901634 133.04717249 -69.26672117 130.2186454 -72.13671875 125.88671875 C-72.62527344 125.16871094 -73.11382813 124.45070313 -73.6171875 123.7109375 C-78.82798189 113.88530468 -78.09442786 101.55483266 -75.51171875 91.01171875 C-71.35612337 78.25433152 -62.57807777 67.3891237 -50.6953125 60.984375 C-48.76171875 60.13671875 -48.76171875 60.13671875 -45.94921875 59.19921875 C-46.34753906 58.79832031 -46.74585938 58.39742187 -47.15625 57.984375 C-53.74485782 50.9148469 -55.58533758 43.84553714 -55.29296875 34.24609375 C-53.95115663 22.35275902 -47.10782588 12.15757568 -37.9921875 4.6640625 C-26.84247556 -3.33047283 -12.71375842 -5.93031285 0 0 Z " fill="#000000" transform="translate(967.94921875,17.80078125)"/>
<path d="M0 0 C1.10118164 -0.0309375 1.10118164 -0.0309375 2.22460938 -0.0625 C7.32025224 -0.09867138 11.30387161 0.39655742 15.6875 3.25 C17.37928487 6.06721565 17.97562869 9.06320175 18.6875 12.25 C19.1198999 14.0750708 19.1198999 14.0750708 19.56103516 15.93701172 C20.40558888 19.56048112 21.20384439 23.19289358 21.9901123 26.82940674 C22.86017279 30.85320215 23.74587536 34.87356631 24.62890625 38.89453125 C24.80436981 39.6957843 24.97983337 40.49703735 25.16061401 41.3225708 C26.7022385 48.35204771 28.30640546 55.36570183 29.9375 62.375 C32.24852716 72.3202416 34.49715891 82.27750587 36.6875 92.25 C38.65141812 87.90485804 39.55101949 83.47093411 40.421875 78.8125 C40.65971458 77.57522659 40.65971458 77.57522659 40.90235901 76.31295776 C41.24198746 74.54414359 41.57945061 72.77491253 41.91494751 71.00531006 C42.7962614 66.35832613 43.69369757 61.71445486 44.58984375 57.0703125 C44.7681926 56.1440506 44.94654144 55.2177887 45.1302948 54.26345825 C46.91415864 45.02272812 48.80795467 35.80726619 50.74023438 26.59643555 C51.74464473 21.80834984 52.74441287 17.02228402 53.65234375 12.21484375 C53.78922607 11.49506348 53.9261084 10.7752832 54.06713867 10.03369141 C54.40050506 8.25939989 54.72429036 6.48331464 55.046875 4.70703125 C55.6875 2.25 55.6875 2.25 57.6875 0.25 C60.5968558 0.10482256 63.407446 0.06369204 66.3125 0.125 C67.51519531 0.13853516 67.51519531 0.13853516 68.7421875 0.15234375 C70.72408523 0.17593777 72.70582981 0.21180935 74.6875 0.25 C76.24055903 3.35611807 75.13273137 5.75090682 74.4296875 9.109375 C74.28648071 9.80151093 74.14327393 10.49364685 73.99572754 11.20675659 C73.52479802 13.47265499 73.04388402 15.73630157 72.5625 18 C72.23481285 19.56421165 71.90750333 21.12850246 71.58056641 22.69287109 C69.63181848 31.97846496 67.59816516 41.24236541 65.45800781 50.48583984 C63.98867114 56.848571 62.62925178 63.22904536 61.3125 69.625 C58.24052258 84.52987041 54.9749371 99.39147317 51.6875 114.25 C51.4287207 115.42256348 51.16994141 116.59512695 50.90332031 117.80322266 C50.21100289 120.93236939 49.51314699 124.06020923 48.8125 127.1875 C48.60947266 128.1048291 48.40644531 129.0221582 48.19726562 129.96728516 C46.80359821 136.13390179 46.80359821 136.13390179 45.6875 137.25 C43.76082493 137.33748207 41.83098139 137.35697334 39.90234375 137.34765625 C38.73251953 137.34443359 37.56269531 137.34121094 36.35742188 137.33789062 C35.12572266 137.32951172 33.89402344 137.32113281 32.625 137.3125 C30.77165039 137.30573242 30.77165039 137.30573242 28.88085938 137.29882812 C25.81635883 137.28699608 22.75195279 137.27051173 19.6875 137.25 C16.29258622 125.10966317 13.45211633 112.87502349 10.80484009 100.552948 C8.5572802 90.09267114 6.17241124 79.67920725 3.55297852 69.30419922 C2.14209734 63.60861972 1.2032814 58.09752169 0.6875 52.25 C0.0275 52.25 -0.6325 52.25 -1.3125 52.25 C-1.50718872 53.97283203 -1.50718872 53.97283203 -1.70581055 55.73046875 C-2.24948169 60.06603645 -3.08483816 64.29645721 -4.01953125 68.5625 C-4.18619797 69.3344873 -4.35286469 70.10647461 -4.52458191 70.90185547 C-4.87676504 72.52917383 -5.23065747 74.15612313 -5.58618164 75.78271484 C-6.11732647 78.2148624 -6.6421079 80.64831578 -7.16601562 83.08203125 C-8.94655233 91.30536477 -10.83503835 99.48745757 -12.91055298 107.64137268 C-14.6853813 114.64273654 -16.16776516 121.69833786 -17.64257812 128.76757812 C-17.84689453 129.72986328 -18.05121094 130.69214844 -18.26171875 131.68359375 C-18.44049561 132.54009521 -18.61927246 133.39659668 -18.8034668 134.27905273 C-19.3125 136.25 -19.3125 136.25 -20.3125 137.25 C-21.65517413 137.33631874 -23.00224322 137.35706473 -24.34765625 137.34765625 C-25.15654297 137.34443359 -25.96542969 137.34121094 -26.79882812 137.33789062 C-27.64896484 137.32951172 -28.49910156 137.32113281 -29.375 137.3125 C-30.22900391 137.30798828 -31.08300781 137.30347656 -31.96289062 137.29882812 C-34.07945663 137.28700373 -36.19598685 137.26906769 -38.3125 137.25 C-37.67101684 130.50408029 -36.54522552 123.99756735 -35.125 117.375 C-34.79181763 115.79936279 -34.79181763 115.79936279 -34.4519043 114.19189453 C-32.65641943 105.74718276 -30.78678421 97.31927442 -28.90234375 88.89404297 C-26.49794481 78.13012888 -24.14157782 67.35592342 -21.79550171 56.5791626 C-21.3541128 54.55216071 -20.91225108 52.5252617 -20.46987915 50.49847412 C-17.9828241 39.10123395 -15.54417185 27.70032232 -13.3125 16.25 C-20.51656786 18.52807297 -24.79150521 22.25206025 -29.625 28 C-34.92325972 38.20405575 -36.14152613 49.82030319 -32.875 60.875 C-32.37146214 62.33939513 -31.8531606 63.79890056 -31.3125 65.25 C-30.9825 66.24 -30.6525 67.23 -30.3125 68.25 C-36.68495611 68.66559496 -43.89420643 68.08797862 -48.9921875 63.85546875 C-54.37469282 57.56526282 -54.83647375 52.12671246 -54.625 44.07421875 C-54.19498811 38.8119483 -52.80386369 34.86249377 -50.3125 30.25 C-49.86519531 29.39664063 -49.41789062 28.54328125 -48.95703125 27.6640625 C-40.76467435 13.03642256 -28.02881488 6.09502955 -12.3125 1.25 C-8.21813098 0.10287959 -4.2288552 0.02924014 0 0 Z " fill="#000000" transform="translate(58.3125,14.75)"/>
</svg>
